<svg id="Capa_1" data-name="Capa 1" xmlns="http://www.w3.org/2000/svg" viewBox="0 0 372.35 46.08"><defs><style>.cls-1{fill:#fff;}</style></defs><path class="cls-1" d="M46.23,29.65H33.17V64.21H20.69V29.65H7.57V18.77H46.23Z" transform="translate(-7.57 -18.52)"/><path class="cls-1" d="M70.55,64.6a21.76,21.76,0,0,1-9.41-2,23.29,23.29,0,0,1-7.23-5.21A23.58,23.58,0,0,1,49.24,50a22.86,22.86,0,0,1-1.67-8.57,22.32,22.32,0,0,1,1.73-8.64,22.92,22.92,0,0,1,4.83-7.33,23.72,23.72,0,0,1,7.36-5.06,22.86,22.86,0,0,1,9.32-1.88,21.86,21.86,0,0,1,9.4,2,23,23,0,0,1,7.24,5.25,23.63,23.63,0,0,1,4.64,7.42,23.32,23.32,0,0,1,1.63,8.52A22.09,22.09,0,0,1,92,50.29a23.15,23.15,0,0,1-4.8,7.3,23.65,23.65,0,0,1-7.33,5.09A22.38,22.38,0,0,1,70.55,64.6Zm-10.3-23A15.28,15.28,0,0,0,60.89,46a11.3,11.3,0,0,0,1.92,3.81A9.64,9.64,0,0,0,66,52.5a10.89,10.89,0,0,0,9.31,0,9.53,9.53,0,0,0,3.23-2.75,11.93,11.93,0,0,0,1.86-3.88,16.47,16.47,0,0,0,.61-4.41A15.7,15.7,0,0,0,80.41,37a10.83,10.83,0,0,0-2-3.77,9.78,9.78,0,0,0-3.26-2.63,10,10,0,0,0-4.58-1,9.9,9.9,0,0,0-4.64,1,9.6,9.6,0,0,0-3.23,2.72,11.68,11.68,0,0,0-1.89,3.84A16.2,16.2,0,0,0,60.25,41.56Z" transform="translate(-7.57 -18.52)"/><path class="cls-1" d="M99,64.21V18.77h19.58a13.8,13.8,0,0,1,6.15,1.38,16,16,0,0,1,4.83,3.58,17,17,0,0,1,3.17,5.06,15.14,15.14,0,0,1,1.15,5.73,16.7,16.7,0,0,1-4.13,10.91A14.6,14.6,0,0,1,125.05,49a14.27,14.27,0,0,1-6.12,1.31h-7.42V64.21Zm12.48-24.83h6.59a2.93,2.93,0,0,0,2.15-1.06c.66-.7,1-2,1-3.8s-.39-3.16-1.15-3.84a3.53,3.53,0,0,0-2.31-1h-6.27Z" transform="translate(-7.57 -18.52)"/><path class="cls-1" d="M136.4,41.11A22.56,22.56,0,0,1,138,32.92a22.19,22.19,0,0,1,4.58-7.23,22.76,22.76,0,0,1,17.09-7.17,22.84,22.84,0,0,1,11.42,2.72,17.7,17.7,0,0,1,7.2,7.2l-9.54,6.78A7.91,7.91,0,0,0,167,32.47a8.6,8.6,0,0,0-2.34-1.73,10.64,10.64,0,0,0-2.65-.9,14.65,14.65,0,0,0-2.66-.25,9.34,9.34,0,0,0-7.84,3.81,12,12,0,0,0-1.86,3.84,15.74,15.74,0,0,0-.6,4.25,14.68,14.68,0,0,0,.7,4.55,11.81,11.81,0,0,0,2.05,3.84,9.9,9.9,0,0,0,3.29,2.65,9.49,9.49,0,0,0,4.39,1,12.59,12.59,0,0,0,2.62-.29,9.54,9.54,0,0,0,2.59-1A8.73,8.73,0,0,0,167,50.55,7.55,7.55,0,0,0,168.53,48L178.71,54a12.9,12.9,0,0,1-3.11,4.48,19.43,19.43,0,0,1-4.73,3.32,24.92,24.92,0,0,1-5.7,2,26.13,26.13,0,0,1-5.92.71,21.14,21.14,0,0,1-9.25-2,23.44,23.44,0,0,1-7.23-5.34,24.52,24.52,0,0,1-4.7-7.55A23.26,23.26,0,0,1,136.4,41.11Z" transform="translate(-7.57 -18.52)"/><path class="cls-1" d="M183.12,64.21V18.77H195.6V64.21Z" transform="translate(-7.57 -18.52)"/><path class="cls-1" d="M237.78,64.21V40.28l-7.62,16.83h-6.65l-7.62-16.83V64.21H203.41V18.77H217l9.79,21.38,9.86-21.38h13.57V64.21Z" transform="translate(-7.57 -18.52)"/><path class="cls-1" d="M290.45,53.33V64.21H258.07V18.77h31.8V29.65H270.55v6.4h16.51V46.17H270.55v7.16Z" transform="translate(-7.57 -18.52)"/><path class="cls-1" d="M308.75,41.88V64.21H296.27V18.77H306l18.24,23.11V18.77h12.48V64.21H326.8Z" transform="translate(-7.57 -18.52)"/><path class="cls-1" d="M379.92,29.65H366.87V64.21H354.38V29.65H341.26V18.77h38.66Z" transform="translate(-7.57 -18.52)"/></svg>